<svg height="1438" width="720" xmlns="http://www.w3.org/2000/svg">
<rect height="1438" fill="#555" width="720"></rect>
<text fill="#7f7" font-family="Courier New" font-size="12" xml:space="preserve">
<tspan x="10" y="26">└─┬ knex@0.12.9 </tspan>
<tspan x="10" y="42">  ├─┬ babel-runtime@6.23.0 </tspan>
<tspan x="10" y="58">  │ ├── core-js@2.4.1 </tspan>
<tspan x="10" y="74">  │ └── regenerator-runtime@0.10.3 </tspan>
<tspan x="10" y="90">  ├── bluebird@3.5.0 </tspan>
<tspan x="10" y="106">  ├─┬ chalk@1.1.3 </tspan>
<tspan x="10" y="122">  │ ├── ansi-styles@2.2.1 </tspan>
<tspan x="10" y="138">  │ ├── escape-string-regexp@1.0.5 </tspan>
<tspan x="10" y="154">  │ ├─┬ has-ansi@2.0.0 </tspan>
<tspan x="10" y="170">  │ │ └── ansi-regex@2.1.1 </tspan>
<tspan x="10" y="186">  │ ├── strip-ansi@3.0.1 </tspan>
<tspan x="10" y="202">  │ └── supports-color@2.0.0 </tspan>
<tspan x="10" y="218">  ├─┬ commander@2.9.0 </tspan>
<tspan x="10" y="234">  │ └── graceful-readlink@1.0.1 </tspan>
<tspan x="10" y="250">  ├─┬ debug@2.6.3 </tspan>
<tspan x="10" y="266">  │ └── ms@0.7.2 </tspan>
<tspan x="10" y="282">  ├── generic-pool@2.5.4 </tspan>
<tspan x="10" y="298">  ├── inherits@2.0.3 </tspan>
<tspan x="10" y="314">  ├── interpret@0.6.6 </tspan>
<tspan x="10" y="330">  ├─┬ liftoff@2.2.5 </tspan>
<tspan x="10" y="346">  │ ├── extend@3.0.0 </tspan>
<tspan x="10" y="362">  │ ├─┬ findup-sync@0.4.3 </tspan>
<tspan x="10" y="378">  │ │ ├─┬ detect-file@0.1.0 </tspan>
<tspan x="10" y="394">  │ │ │ └── fs-exists-sync@0.1.0 </tspan>
<tspan x="10" y="410">  │ │ ├─┬ is-glob@2.0.1 </tspan>
<tspan x="10" y="426">  │ │ │ └── is-extglob@1.0.0 </tspan>
<tspan x="10" y="442">  │ │ ├─┬ micromatch@2.3.11 </tspan>
<tspan x="10" y="458">  │ │ │ ├─┬ arr-diff@2.0.0 </tspan>
<tspan x="10" y="474">  │ │ │ │ └── arr-flatten@1.0.1 </tspan>
<tspan x="10" y="490">  │ │ │ ├── array-unique@0.2.1 </tspan>
<tspan x="10" y="506">  │ │ │ ├─┬ braces@1.8.5 </tspan>
<tspan x="10" y="522">  │ │ │ │ ├─┬ expand-range@1.8.2 </tspan>
<tspan x="10" y="538">  │ │ │ │ │ └─┬ fill-range@2.2.3 </tspan>
<tspan x="10" y="554">  │ │ │ │ │   ├── is-number@2.1.0 </tspan>
<tspan x="10" y="570">  │ │ │ │ │   ├─┬ isobject@2.1.0 </tspan>
<tspan x="10" y="586">  │ │ │ │ │   │ └── isarray@1.0.0 </tspan>
<tspan x="10" y="602">  │ │ │ │ │   ├── randomatic@1.1.6 </tspan>
<tspan x="10" y="618">  │ │ │ │ │   └── repeat-string@1.6.1 </tspan>
<tspan x="10" y="634">  │ │ │ │ ├── preserve@0.2.0 </tspan>
<tspan x="10" y="650">  │ │ │ │ └── repeat-element@1.1.2 </tspan>
<tspan x="10" y="666">  │ │ │ ├─┬ expand-brackets@0.1.5 </tspan>
<tspan x="10" y="682">  │ │ │ │ └── is-posix-bracket@0.1.1 </tspan>
<tspan x="10" y="698">  │ │ │ ├── extglob@0.3.2 </tspan>
<tspan x="10" y="714">  │ │ │ ├── filename-regex@2.0.0 </tspan>
<tspan x="10" y="730">  │ │ │ ├─┬ kind-of@3.1.0 </tspan>
<tspan x="10" y="746">  │ │ │ │ └── is-buffer@1.1.5 </tspan>
<tspan x="10" y="762">  │ │ │ ├─┬ normalize-path@2.1.1 </tspan>
<tspan x="10" y="778">  │ │ │ │ └── remove-trailing-separator@1.0.1 </tspan>
<tspan x="10" y="794">  │ │ │ ├─┬ object.omit@2.0.1 </tspan>
<tspan x="10" y="810">  │ │ │ │ ├─┬ for-own@0.1.5 </tspan>
<tspan x="10" y="826">  │ │ │ │ │ └── for-in@1.0.2 </tspan>
<tspan x="10" y="842">  │ │ │ │ └── is-extendable@0.1.1 </tspan>
<tspan x="10" y="858">  │ │ │ ├─┬ parse-glob@3.0.4 </tspan>
<tspan x="10" y="874">  │ │ │ │ ├─┬ glob-base@0.3.0 </tspan>
<tspan x="10" y="890">  │ │ │ │ │ └── glob-parent@2.0.0 </tspan>
<tspan x="10" y="906">  │ │ │ │ └── is-dotfile@1.0.2 </tspan>
<tspan x="10" y="922">  │ │ │ └─┬ regex-cache@0.4.3 </tspan>
<tspan x="10" y="938">  │ │ │   ├── is-equal-shallow@0.1.3 </tspan>
<tspan x="10" y="954">  │ │ │   └── is-primitive@2.0.0 </tspan>
<tspan x="10" y="970">  │ │ └─┬ resolve-dir@0.1.1 </tspan>
<tspan x="10" y="986">  │ │   ├─┬ expand-tilde@1.2.2 </tspan>
<tspan x="10" y="1002">  │ │   │ └── os-homedir@1.0.2 </tspan>
<tspan x="10" y="1018">  │ │   └─┬ global-modules@0.2.3 </tspan>
<tspan x="10" y="1034">  │ │     ├─┬ global-prefix@0.1.5 </tspan>
<tspan x="10" y="1050">  │ │     │ ├─┬ homedir-polyfill@1.0.1 </tspan>
<tspan x="10" y="1066">  │ │     │ │ └── parse-passwd@1.0.0 </tspan>
<tspan x="10" y="1082">  │ │     │ ├── ini@1.3.4 </tspan>
<tspan x="10" y="1098">  │ │     │ └─┬ which@1.2.14 </tspan>
<tspan x="10" y="1114">  │ │     │   └── isexe@2.0.0 </tspan>
<tspan x="10" y="1130">  │ │     └── is-windows@0.2.0 </tspan>
<tspan x="10" y="1146">  │ ├── flagged-respawn@0.3.2 </tspan>
<tspan x="10" y="1162">  │ ├── rechoir@0.6.2 </tspan>
<tspan x="10" y="1178">  │ └─┬ resolve@1.3.2 </tspan>
<tspan x="10" y="1194">  │   └── path-parse@1.0.5 </tspan>
<tspan x="10" y="1210">  ├── lodash@4.17.4 </tspan>
<tspan x="10" y="1226">  ├── minimist@1.1.3 </tspan>
<tspan x="10" y="1242">  ├─┬ mkdirp@0.5.1 </tspan>
<tspan x="10" y="1258">  │ └── minimist@0.0.8 </tspan>
<tspan x="10" y="1274">  ├── pg-connection-string@0.1.3 </tspan>
<tspan x="10" y="1290">  ├─┬ readable-stream@1.1.14 </tspan>
<tspan x="10" y="1306">  │ ├── core-util-is@1.0.2 </tspan>
<tspan x="10" y="1322">  │ ├── isarray@0.0.1 </tspan>
<tspan x="10" y="1338">  │ └── string_decoder@0.10.31 </tspan>
<tspan x="10" y="1354">  ├── safe-buffer@5.0.1 </tspan>
<tspan x="10" y="1370">  ├─┬ tildify@1.0.0 </tspan>
<tspan x="10" y="1386">  │ └── user-home@1.1.1 </tspan>
<tspan x="10" y="1402">  ├── uuid@3.0.1 </tspan>
<tspan x="10" y="1418">  └── v8flags@2.0.12</tspan>
</text>
</svg>
